<mxfile host="app.diagrams.net" agent="Mozilla/5.0 (Windows NT 10.0; Win64; x64) AppleWebKit/537.36 (KHTML, like Gecko) Chrome/132.0.0.0 Safari/537.36" version="26.0.8">
  <diagram name="Página-1" id="wkwMZMTxy4xbMyuyJt76">
    <mxGraphModel dx="2913" dy="1831" grid="1" gridSize="8" guides="1" tooltips="1" connect="1" arrows="1" fold="1" page="1" pageScale="1" pageWidth="1654" pageHeight="1169" math="0" shadow="0">
      <root>
        <mxCell id="0" />
        <mxCell id="1" parent="0" />
        <mxCell id="YKHne9TACWLXyV4MfOwQ-41" value="" style="verticalLabelPosition=bottom;verticalAlign=top;html=1;shape=mxgraph.basic.rect;fillColor2=none;strokeWidth=1;size=20;indent=5;" vertex="1" parent="1">
          <mxGeometry x="-608" y="-35" width="896" height="608" as="geometry" />
        </mxCell>
        <mxCell id="YKHne9TACWLXyV4MfOwQ-52" style="edgeStyle=orthogonalEdgeStyle;rounded=0;orthogonalLoop=1;jettySize=auto;html=1;exitX=1;exitY=0.5;exitDx=0;exitDy=0;entryX=0;entryY=0.5;entryDx=0;entryDy=0;endArrow=none;startFill=0;" edge="1" parent="1" source="MKk7beEa5KVWcvYZorYV-1" target="YKHne9TACWLXyV4MfOwQ-42">
          <mxGeometry relative="1" as="geometry" />
        </mxCell>
        <mxCell id="MKk7beEa5KVWcvYZorYV-1" value="Usuario" style="whiteSpace=wrap;html=1;align=center;" parent="1" vertex="1">
          <mxGeometry x="-33" y="236" width="100" height="40" as="geometry" />
        </mxCell>
        <mxCell id="YKHne9TACWLXyV4MfOwQ-56" style="edgeStyle=orthogonalEdgeStyle;rounded=0;orthogonalLoop=1;jettySize=auto;html=1;exitX=1;exitY=0;exitDx=0;exitDy=0;strokeColor=default;endArrow=none;startFill=0;" edge="1" parent="1" source="MKk7beEa5KVWcvYZorYV-2" target="MKk7beEa5KVWcvYZorYV-1">
          <mxGeometry relative="1" as="geometry" />
        </mxCell>
        <mxCell id="MKk7beEa5KVWcvYZorYV-2" value="codigo" style="ellipse;whiteSpace=wrap;html=1;align=center;" parent="1" vertex="1">
          <mxGeometry x="-152" y="268" width="56" height="24" as="geometry" />
        </mxCell>
        <mxCell id="YKHne9TACWLXyV4MfOwQ-53" style="edgeStyle=orthogonalEdgeStyle;rounded=0;orthogonalLoop=1;jettySize=auto;html=1;exitX=0.5;exitY=1;exitDx=0;exitDy=0;endArrow=none;startFill=0;" edge="1" parent="1" source="MKk7beEa5KVWcvYZorYV-3" target="MKk7beEa5KVWcvYZorYV-1">
          <mxGeometry relative="1" as="geometry" />
        </mxCell>
        <mxCell id="MKk7beEa5KVWcvYZorYV-3" value="UserName" style="ellipse;whiteSpace=wrap;html=1;align=center;" parent="1" vertex="1">
          <mxGeometry x="-33" y="152" width="76" height="40" as="geometry" />
        </mxCell>
        <mxCell id="YKHne9TACWLXyV4MfOwQ-55" style="edgeStyle=orthogonalEdgeStyle;rounded=0;orthogonalLoop=1;jettySize=auto;html=1;exitX=0;exitY=0;exitDx=0;exitDy=0;entryX=0.75;entryY=1;entryDx=0;entryDy=0;endArrow=none;startFill=0;" edge="1" parent="1" source="MKk7beEa5KVWcvYZorYV-4" target="MKk7beEa5KVWcvYZorYV-1">
          <mxGeometry relative="1" as="geometry" />
        </mxCell>
        <mxCell id="MKk7beEa5KVWcvYZorYV-4" value="Password" style="ellipse;whiteSpace=wrap;html=1;align=center;" parent="1" vertex="1">
          <mxGeometry x="67" y="336" width="72" height="40" as="geometry" />
        </mxCell>
        <mxCell id="YKHne9TACWLXyV4MfOwQ-54" style="edgeStyle=orthogonalEdgeStyle;rounded=0;orthogonalLoop=1;jettySize=auto;html=1;exitX=0;exitY=1;exitDx=0;exitDy=0;entryX=1;entryY=0.25;entryDx=0;entryDy=0;endArrow=none;startFill=0;" edge="1" parent="1" source="MKk7beEa5KVWcvYZorYV-5" target="MKk7beEa5KVWcvYZorYV-1">
          <mxGeometry relative="1" as="geometry" />
        </mxCell>
        <mxCell id="MKk7beEa5KVWcvYZorYV-5" value="LvAsses" style="ellipse;whiteSpace=wrap;html=1;align=center;" parent="1" vertex="1">
          <mxGeometry x="96" y="200" width="56" height="24" as="geometry" />
        </mxCell>
        <mxCell id="MKk7beEa5KVWcvYZorYV-6" value="hospede" style="whiteSpace=wrap;html=1;align=center;" parent="1" vertex="1">
          <mxGeometry x="899" y="168" width="100" height="40" as="geometry" />
        </mxCell>
        <mxCell id="MKk7beEa5KVWcvYZorYV-7" value="codigo" style="ellipse;whiteSpace=wrap;html=1;align=center;" parent="1" vertex="1">
          <mxGeometry x="987" y="72" width="56" height="24" as="geometry" />
        </mxCell>
        <mxCell id="MKk7beEa5KVWcvYZorYV-8" value="sobrenome" style="ellipse;whiteSpace=wrap;html=1;align=center;" parent="1" vertex="1">
          <mxGeometry x="891" y="112" width="70" height="40" as="geometry" />
        </mxCell>
        <mxCell id="MKk7beEa5KVWcvYZorYV-9" value="nome" style="ellipse;whiteSpace=wrap;html=1;align=center;" parent="1" vertex="1">
          <mxGeometry x="921" y="64" width="56" height="24" as="geometry" />
        </mxCell>
        <mxCell id="MKk7beEa5KVWcvYZorYV-10" value="cpf" style="ellipse;whiteSpace=wrap;html=1;align=center;rotation=-4;" parent="1" vertex="1">
          <mxGeometry x="891.42" y="259.99" width="56" height="28" as="geometry" />
        </mxCell>
        <mxCell id="MKk7beEa5KVWcvYZorYV-11" value="celular" style="ellipse;whiteSpace=wrap;html=1;align=center;" parent="1" vertex="1">
          <mxGeometry x="939" y="232" width="56" height="24" as="geometry" />
        </mxCell>
        <mxCell id="MKk7beEa5KVWcvYZorYV-12" value="email" style="ellipse;whiteSpace=wrap;html=1;align=center;" parent="1" vertex="1">
          <mxGeometry x="1011" y="216" width="56" height="24" as="geometry" />
        </mxCell>
        <mxCell id="YKHne9TACWLXyV4MfOwQ-1" value="endereço" style="ellipse;whiteSpace=wrap;html=1;align=center;" vertex="1" parent="1">
          <mxGeometry x="955" y="100" width="56" height="24" as="geometry" />
        </mxCell>
        <mxCell id="YKHne9TACWLXyV4MfOwQ-2" value="cep" style="ellipse;whiteSpace=wrap;html=1;align=center;" vertex="1" parent="1">
          <mxGeometry x="995" y="128" width="56" height="24" as="geometry" />
        </mxCell>
        <mxCell id="YKHne9TACWLXyV4MfOwQ-3" value="bairro" style="ellipse;whiteSpace=wrap;html=1;align=center;" vertex="1" parent="1">
          <mxGeometry x="864" y="216" width="56" height="24" as="geometry" />
        </mxCell>
        <mxCell id="YKHne9TACWLXyV4MfOwQ-6" value="cidade" style="ellipse;whiteSpace=wrap;html=1;align=center;" vertex="1" parent="1">
          <mxGeometry x="827" y="112" width="56" height="24" as="geometry" />
        </mxCell>
        <mxCell id="YKHne9TACWLXyV4MfOwQ-7" value="uf" style="ellipse;whiteSpace=wrap;html=1;align=center;" vertex="1" parent="1">
          <mxGeometry x="851" y="56" width="56" height="24" as="geometry" />
        </mxCell>
        <mxCell id="YKHne9TACWLXyV4MfOwQ-9" value="quarto" style="whiteSpace=wrap;html=1;align=center;" vertex="1" parent="1">
          <mxGeometry x="1264" y="136" width="100" height="40" as="geometry" />
        </mxCell>
        <mxCell id="YKHne9TACWLXyV4MfOwQ-10" value="descriçao" style="ellipse;whiteSpace=wrap;html=1;align=center;" vertex="1" parent="1">
          <mxGeometry x="1280" y="192" width="56" height="24" as="geometry" />
        </mxCell>
        <mxCell id="YKHne9TACWLXyV4MfOwQ-11" value="tipo" style="ellipse;whiteSpace=wrap;html=1;align=center;" vertex="1" parent="1">
          <mxGeometry x="1208" y="192" width="56" height="24" as="geometry" />
        </mxCell>
        <mxCell id="YKHne9TACWLXyV4MfOwQ-12" value="nome" style="ellipse;whiteSpace=wrap;html=1;align=center;" vertex="1" parent="1">
          <mxGeometry x="1271" y="88" width="56" height="24" as="geometry" />
        </mxCell>
        <mxCell id="YKHne9TACWLXyV4MfOwQ-13" value="codigo" style="ellipse;whiteSpace=wrap;html=1;align=center;" vertex="1" parent="1">
          <mxGeometry x="1184" y="136" width="56" height="24" as="geometry" />
        </mxCell>
        <mxCell id="YKHne9TACWLXyV4MfOwQ-14" value="numero" style="ellipse;whiteSpace=wrap;html=1;align=center;" vertex="1" parent="1">
          <mxGeometry x="1368" y="144" width="56" height="24" as="geometry" />
        </mxCell>
        <mxCell id="YKHne9TACWLXyV4MfOwQ-15" style="edgeStyle=orthogonalEdgeStyle;rounded=0;orthogonalLoop=1;jettySize=auto;html=1;exitX=0.5;exitY=1;exitDx=0;exitDy=0;" edge="1" parent="1" source="YKHne9TACWLXyV4MfOwQ-6" target="YKHne9TACWLXyV4MfOwQ-6">
          <mxGeometry relative="1" as="geometry" />
        </mxCell>
        <mxCell id="YKHne9TACWLXyV4MfOwQ-17" value="precificação" style="whiteSpace=wrap;html=1;align=center;" vertex="1" parent="1">
          <mxGeometry x="472" y="509" width="100" height="40" as="geometry" />
        </mxCell>
        <mxCell id="YKHne9TACWLXyV4MfOwQ-18" value="codigo" style="ellipse;whiteSpace=wrap;html=1;align=center;" vertex="1" parent="1">
          <mxGeometry x="408" y="565" width="56" height="24" as="geometry" />
        </mxCell>
        <mxCell id="YKHne9TACWLXyV4MfOwQ-19" value="valor diaria&lt;span style=&quot;color: rgba(0, 0, 0, 0); font-family: monospace; font-size: 0px; text-align: start; text-wrap-mode: nowrap;&quot;&gt;%3CmxGraphModel%3E%3Croot%3E%3CmxCell%20id%3D%220%22%2F%3E%3CmxCell%20id%3D%221%22%20parent%3D%220%22%2F%3E%3CmxCell%20id%3D%222%22%20value%3D%22codigo%22%20style%3D%22ellipse%3BwhiteSpace%3Dwrap%3Bhtml%3D1%3Balign%3Dcenter%3B%22%20vertex%3D%221%22%20parent%3D%221%22%3E%3CmxGeometry%20x%3D%2240%22%20y%3D%22136%22%20width%3D%2256%22%20height%3D%2224%22%20as%3D%22geometry%22%2F%3E%3C%2FmxCell%3E%3C%2Froot%3E%3C%2FmxGraphModel%3E&lt;/span&gt;" style="ellipse;whiteSpace=wrap;html=1;align=center;" vertex="1" parent="1">
          <mxGeometry x="480" y="477" width="72" height="24" as="geometry" />
        </mxCell>
        <mxCell id="YKHne9TACWLXyV4MfOwQ-20" value="codigo" style="ellipse;whiteSpace=wrap;html=1;align=center;" vertex="1" parent="1">
          <mxGeometry x="864" y="525" width="56" height="24" as="geometry" />
        </mxCell>
        <mxCell id="YKHne9TACWLXyV4MfOwQ-21" value="reserva" style="whiteSpace=wrap;html=1;align=center;" vertex="1" parent="1">
          <mxGeometry x="932" y="517" width="100" height="40" as="geometry" />
        </mxCell>
        <mxCell id="YKHne9TACWLXyV4MfOwQ-22" value="tipo" style="ellipse;whiteSpace=wrap;html=1;align=center;" vertex="1" parent="1">
          <mxGeometry x="572" y="565" width="56" height="24" as="geometry" />
        </mxCell>
        <mxCell id="YKHne9TACWLXyV4MfOwQ-23" value="data entrada" style="ellipse;whiteSpace=wrap;html=1;align=center;" vertex="1" parent="1">
          <mxGeometry x="943" y="477" width="78" height="32" as="geometry" />
        </mxCell>
        <mxCell id="YKHne9TACWLXyV4MfOwQ-24" value="data saida" style="ellipse;whiteSpace=wrap;html=1;align=center;" vertex="1" parent="1">
          <mxGeometry x="912" y="573" width="72" height="32" as="geometry" />
        </mxCell>
        <mxCell id="YKHne9TACWLXyV4MfOwQ-25" value="codigo quarto" style="ellipse;whiteSpace=wrap;html=1;align=center;" vertex="1" parent="1">
          <mxGeometry x="1040" y="541" width="56" height="40" as="geometry" />
        </mxCell>
        <mxCell id="YKHne9TACWLXyV4MfOwQ-26" value="codigo hopede" style="ellipse;whiteSpace=wrap;html=1;align=center;" vertex="1" parent="1">
          <mxGeometry x="1040" y="485" width="56" height="40" as="geometry" />
        </mxCell>
        <mxCell id="YKHne9TACWLXyV4MfOwQ-60" style="rounded=0;orthogonalLoop=1;jettySize=auto;html=1;exitX=1;exitY=0.5;exitDx=0;exitDy=0;endArrow=none;startFill=0;entryX=0;entryY=0.5;entryDx=0;entryDy=0;" edge="1" parent="1" source="YKHne9TACWLXyV4MfOwQ-32" target="YKHne9TACWLXyV4MfOwQ-58">
          <mxGeometry relative="1" as="geometry" />
        </mxCell>
        <mxCell id="YKHne9TACWLXyV4MfOwQ-32" value="acompanhantes" style="whiteSpace=wrap;html=1;align=center;" vertex="1" parent="1">
          <mxGeometry x="458" y="156" width="100" height="40" as="geometry" />
        </mxCell>
        <mxCell id="YKHne9TACWLXyV4MfOwQ-33" value="codigo" style="ellipse;whiteSpace=wrap;html=1;align=center;" vertex="1" parent="1">
          <mxGeometry x="447" y="208" width="56" height="24" as="geometry" />
        </mxCell>
        <mxCell id="YKHne9TACWLXyV4MfOwQ-34" value="codigo hospede" style="ellipse;whiteSpace=wrap;html=1;align=center;" vertex="1" parent="1">
          <mxGeometry x="376" y="156" width="64" height="40" as="geometry" />
        </mxCell>
        <mxCell id="YKHne9TACWLXyV4MfOwQ-35" value="codigo do hospede&lt;div&gt;(acompanhante)&amp;nbsp;&lt;/div&gt;" style="ellipse;whiteSpace=wrap;html=1;align=center;" vertex="1" parent="1">
          <mxGeometry x="447" y="100" width="120" height="48" as="geometry" />
        </mxCell>
        <mxCell id="YKHne9TACWLXyV4MfOwQ-37" value="valor total" style="ellipse;whiteSpace=wrap;html=1;align=center;" vertex="1" parent="1">
          <mxGeometry x="1000" y="592" width="56" height="40" as="geometry" />
        </mxCell>
        <mxCell id="YKHne9TACWLXyV4MfOwQ-42" value="entrar ou sair do sistema (login e logout)" style="shape=rhombus;perimeter=rhombusPerimeter;whiteSpace=wrap;html=1;align=center;" vertex="1" parent="1">
          <mxGeometry x="184" y="228" width="120" height="60" as="geometry" />
        </mxCell>
        <mxCell id="YKHne9TACWLXyV4MfOwQ-44" style="edgeStyle=orthogonalEdgeStyle;rounded=0;orthogonalLoop=1;jettySize=auto;html=1;exitX=0.5;exitY=1;exitDx=0;exitDy=0;" edge="1" parent="1" source="MKk7beEa5KVWcvYZorYV-5" target="MKk7beEa5KVWcvYZorYV-5">
          <mxGeometry relative="1" as="geometry" />
        </mxCell>
        <mxCell id="YKHne9TACWLXyV4MfOwQ-45" style="edgeStyle=orthogonalEdgeStyle;rounded=0;orthogonalLoop=1;jettySize=auto;html=1;exitX=0.5;exitY=1;exitDx=0;exitDy=0;" edge="1" parent="1" source="MKk7beEa5KVWcvYZorYV-5" target="MKk7beEa5KVWcvYZorYV-5">
          <mxGeometry relative="1" as="geometry" />
        </mxCell>
        <mxCell id="YKHne9TACWLXyV4MfOwQ-57" style="edgeStyle=orthogonalEdgeStyle;rounded=0;orthogonalLoop=1;jettySize=auto;html=1;entryX=0.004;entryY=0.332;entryDx=0;entryDy=0;entryPerimeter=0;endArrow=none;startFill=0;" edge="1" parent="1" source="YKHne9TACWLXyV4MfOwQ-42" target="YKHne9TACWLXyV4MfOwQ-41">
          <mxGeometry relative="1" as="geometry" />
        </mxCell>
        <mxCell id="YKHne9TACWLXyV4MfOwQ-61" style="rounded=0;orthogonalLoop=1;jettySize=auto;html=1;endArrow=none;startFill=0;exitX=1;exitY=0.5;exitDx=0;exitDy=0;" edge="1" parent="1" source="YKHne9TACWLXyV4MfOwQ-58" target="MKk7beEa5KVWcvYZorYV-6">
          <mxGeometry relative="1" as="geometry">
            <mxPoint x="840" y="184" as="sourcePoint" />
          </mxGeometry>
        </mxCell>
        <mxCell id="YKHne9TACWLXyV4MfOwQ-58" value="representa" style="shape=rhombus;perimeter=rhombusPerimeter;whiteSpace=wrap;html=1;align=center;" vertex="1" parent="1">
          <mxGeometry x="664" y="118" width="120" height="60" as="geometry" />
        </mxCell>
        <mxCell id="YKHne9TACWLXyV4MfOwQ-65" style="edgeStyle=orthogonalEdgeStyle;rounded=0;orthogonalLoop=1;jettySize=auto;html=1;exitX=1;exitY=0.5;exitDx=0;exitDy=0;entryX=1;entryY=0.25;entryDx=0;entryDy=0;" edge="1" parent="1" source="YKHne9TACWLXyV4MfOwQ-32" target="YKHne9TACWLXyV4MfOwQ-32">
          <mxGeometry relative="1" as="geometry" />
        </mxCell>
        <mxCell id="YKHne9TACWLXyV4MfOwQ-69" style="rounded=0;orthogonalLoop=1;jettySize=auto;html=1;exitX=0.75;exitY=0;exitDx=0;exitDy=0;entryX=1;entryY=1;entryDx=0;entryDy=0;endArrow=none;startFill=0;" edge="1" parent="1" source="YKHne9TACWLXyV4MfOwQ-67" target="YKHne9TACWLXyV4MfOwQ-68">
          <mxGeometry relative="1" as="geometry">
            <Array as="points" />
          </mxGeometry>
        </mxCell>
        <mxCell id="YKHne9TACWLXyV4MfOwQ-67" value="grupo" style="whiteSpace=wrap;html=1;align=center;" vertex="1" parent="1">
          <mxGeometry x="664" y="312" width="100" height="40" as="geometry" />
        </mxCell>
        <mxCell id="YKHne9TACWLXyV4MfOwQ-70" style="rounded=0;orthogonalLoop=1;jettySize=auto;html=1;exitX=0;exitY=0;exitDx=0;exitDy=0;endArrow=none;startFill=0;" edge="1" parent="1" source="YKHne9TACWLXyV4MfOwQ-68">
          <mxGeometry relative="1" as="geometry">
            <mxPoint x="560" y="176" as="targetPoint" />
          </mxGeometry>
        </mxCell>
        <mxCell id="YKHne9TACWLXyV4MfOwQ-68" value="contem" style="shape=rhombus;perimeter=rhombusPerimeter;whiteSpace=wrap;html=1;align=center;" vertex="1" parent="1">
          <mxGeometry x="664" y="180" width="120" height="60" as="geometry" />
        </mxCell>
        <mxCell id="YKHne9TACWLXyV4MfOwQ-72" value="sobrenome" style="ellipse;whiteSpace=wrap;html=1;align=center;" vertex="1" parent="1">
          <mxGeometry x="679" y="360" width="70" height="40" as="geometry" />
        </mxCell>
        <mxCell id="YKHne9TACWLXyV4MfOwQ-75" value="codigo" style="ellipse;whiteSpace=wrap;html=1;align=center;" vertex="1" parent="1">
          <mxGeometry x="600" y="328" width="56" height="24" as="geometry" />
        </mxCell>
      </root>
    </mxGraphModel>
  </diagram>
</mxfile>
